<?xml version="1.0" encoding="UTF-8" standalone="no"?>
<!DOCTYPE svg PUBLIC "-//W3C//DTD SVG 1.1//EN" "http://www.w3.org/Graphics/SVG/1.1/DTD/svg11.dtd">
<svg width="100%" height="100%" viewBox="0 0 1026 1026" version="1.1" xmlns="http://www.w3.org/2000/svg" xmlns:xlink="http://www.w3.org/1999/xlink" xml:space="preserve" xmlns:serif="http://www.serif.com/" style="fill-rule:evenodd;clip-rule:evenodd;stroke-linejoin:round;stroke-miterlimit:2;">
    <path d="M734,818C734,818 674.288,870.074 631,885C582.238,901.814 489.964,899.735 434,894C375.194,887.974 323.908,852.825 310,828C286.02,785.197 288.286,712.43 296,680C304.167,645.667 344,574 344,574L388,494C388,494 327.868,484.91 275.44,461.765C224.134,439.115 180.504,402.539 181,390C181.912,366.955 269,317 269,317C269,317 280.333,175 379,137C447.831,110.491 555.746,112.308 616,140C682.545,170.583 729,285 729,285C729,285 794.942,317.357 818.403,354.953C856.786,416.459 853,494 853,494C853,494 833.363,474.836 810.53,470.336C796.093,467.491 764,479 764,479L731,547C731,547 756.885,538.848 766,548C785.167,567.244 770,689 770,689C770,689 833.851,619.857 890,625C926.889,628.379 941.21,642.879 929,673C920.188,694.737 881.333,736 850,759C818.667,782 775.716,806.271 734,818Z"/>
</svg>
