<?xml version="1.0" encoding="UTF-8" standalone="no"?>
<!DOCTYPE svg PUBLIC "-//W3C//DTD SVG 1.1//EN" "http://www.w3.org/Graphics/SVG/1.1/DTD/svg11.dtd">
<svg width="100%" height="100%" viewBox="0 0 1026 1026" version="1.1" xmlns="http://www.w3.org/2000/svg" xmlns:xlink="http://www.w3.org/1999/xlink" xml:space="preserve" xmlns:serif="http://www.serif.com/" style="fill-rule:evenodd;clip-rule:evenodd;stroke-linejoin:round;stroke-miterlimit:2;">
    <path d="M419,338C377,331.333 278,326 278,326C278,326 198,376.167 197,389C196.144,399.983 213.128,412.724 225,420C245.667,432.667 260.312,443.073 321,465C370.08,482.733 410.826,483.889 439,483C457.761,482.408 483.022,480.746 500.184,468.713C523.327,452.485 538.915,433.829 540,432C540,432 556.41,412.941 560,416C566.32,421.385 549,439 549,439C549,439 525.633,471.453 497,482C448.108,500.009 406,498 406,498L315,658C315,658 296.57,691.022 308,767C317.23,828.356 342.994,852.546 378,866C422.667,883.167 518.196,886.704 567,882C643.169,874.659 671,841 671,841C630.359,852.427 630.745,853.57 597,840C568.288,828.454 553.629,807.067 553,750C552.163,674.045 596,657.667 610,607C624,556.333 637.03,491.472 624,456C603.539,400.297 530,366 530,366C530,366 456.687,343.982 419,338Z" style="fill:none;"/>
</svg>
