<?xml version="1.0" encoding="UTF-8" standalone="no"?><!DOCTYPE svg PUBLIC "-//W3C//DTD SVG 1.1//EN" "http://www.w3.org/Graphics/SVG/1.1/DTD/svg11.dtd"><svg width="100%" height="100%" viewBox="0 0 1026 1026" version="1.1" xmlns="http://www.w3.org/2000/svg" xmlns:xlink="http://www.w3.org/1999/xlink" xml:space="preserve" xmlns:serif="http://www.serif.com/" style="fill-rule:evenodd;clip-rule:evenodd;stroke-miterlimit:10;"><path d="M1024.53,896.53l-1024,0" style="fill:none;fill-rule:nonzero;stroke:#5db3f9;stroke-width:1.5px;"/><path d="M1024.53,768.53l-1024,0" style="fill:none;fill-rule:nonzero;stroke:#5db3f9;stroke-width:1.5px;"/><path d="M1024.53,640.53l-1024,0" style="fill:none;fill-rule:nonzero;stroke:#5db3f9;stroke-width:1.5px;"/><path d="M1024.53,512.53l-1024,0" style="fill:none;fill-rule:nonzero;stroke:#5db3f9;stroke-width:1.5px;"/><path d="M1024.53,384.53l-1024,0" style="fill:none;fill-rule:nonzero;stroke:#5db3f9;stroke-width:1.5px;"/><path d="M1024.53,256.53l-1024,0" style="fill:none;fill-rule:nonzero;stroke:#5db3f9;stroke-width:1.5px;"/><path d="M1024.53,128.53l-1024,0" style="fill:none;fill-rule:nonzero;stroke:#5db3f9;stroke-width:1.5px;"/><path d="M896.53,1024.53l0,-1024" style="fill:none;fill-rule:nonzero;stroke:#5db3f9;stroke-width:1.5px;"/><path d="M768.53,1024.53l0,-1024" style="fill:none;fill-rule:nonzero;stroke:#5db3f9;stroke-width:1.5px;"/><path d="M640.53,1024.53l0,-1024" style="fill:none;fill-rule:nonzero;stroke:#5db3f9;stroke-width:1.5px;"/><path d="M512.53,1024.53l0,-1024" style="fill:none;fill-rule:nonzero;stroke:#5db3f9;stroke-width:1.5px;"/><path d="M384.53,1024.53l0,-1024" style="fill:none;fill-rule:nonzero;stroke:#5db3f9;stroke-width:1.5px;"/><path d="M256.53,1024.53l0,-1024" style="fill:none;fill-rule:nonzero;stroke:#5db3f9;stroke-width:1.5px;"/><path d="M128.53,1024.53l0,-1024" style="fill:none;fill-rule:nonzero;stroke:#5db3f9;stroke-width:1.5px;"/><path d="M1024.53,0.53l-1024,1024" style="fill:none;fill-rule:nonzero;stroke:#5db3f9;stroke-width:1.5px;"/><path d="M1024.53,1024.53l-1024,-1024" style="fill:none;fill-rule:nonzero;stroke:#5db3f9;stroke-width:1.5px;"/><path d="M512.53,922.53c226.437,0 410,-183.563 410,-410c0,-226.436 -183.563,-410 -410,-410c-226.436,0 -410,183.564 -410,410c0,226.437 183.564,410 410,410Z" style="fill:none;fill-rule:nonzero;stroke:#5db3f9;stroke-width:1.5px;"/><path d="M512.53,768.53c141.385,0 256,-114.615 256,-256c0,-141.385 -114.615,-256 -256,-256c-141.385,0 -256,114.615 -256,256c0,141.385 114.615,256 256,256Z" style="fill:none;fill-rule:nonzero;stroke:#5db3f9;stroke-width:1.5px;"/><path d="M512.53,614.53c56.333,0 102,-45.667 102,-102c0,-56.333 -45.667,-102 -102,-102c-56.333,0 -102,45.667 -102,102c0,56.333 45.667,102 102,102Z" style="fill:none;fill-rule:nonzero;stroke:#5db3f9;stroke-width:1.5px;"/></svg>