<?xml version="1.0" encoding="UTF-8" standalone="no"?><!DOCTYPE svg PUBLIC "-//W3C//DTD SVG 1.1//EN" "http://www.w3.org/Graphics/SVG/1.1/DTD/svg11.dtd"><svg width="100%" height="100%" viewBox="0 0 1026 1026" version="1.1" xmlns="http://www.w3.org/2000/svg" xmlns:xlink="http://www.w3.org/1999/xlink" xml:space="preserve" xmlns:serif="http://www.serif.com/" style="fill-rule:evenodd;clip-rule:evenodd;stroke-miterlimit:10;"><path d="M1024.53,896.53l-1024,0" style="fill:none;fill-rule:nonzero;stroke:#5db3f9;stroke-width:1.5px;"/><path d="M1024.53,768.53l-1024,0" style="fill:none;fill-rule:nonzero;stroke:#5db3f9;stroke-width:1.5px;"/><path d="M1024.53,640.53l-1024,0" style="fill:none;fill-rule:nonzero;stroke:#5db3f9;stroke-width:1.5px;"/><path d="M1024.53,512.53l-1024,0" style="fill:none;fill-rule:nonzero;stroke:#5db3f9;stroke-width:1.5px;"/><path d="M1024.53,384.53l-1024,0" style="fill:none;fill-rule:nonzero;stroke:#5db3f9;stroke-width:1.5px;"/><path d="M1024.53,256.53l-1024,0" style="fill:none;fill-rule:nonzero;stroke:#5db3f9;stroke-width:1.5px;"/><path d="M1024.53,128.53l-1024,0" style="fill:none;fill-rule:nonzero;stroke:#5db3f9;stroke-width:1.5px;"/><path d="M896.53,1024.53l0,-1024" style="fill:none;fill-rule:nonzero;stroke:#5db3f9;stroke-width:1.5px;"/><path d="M768.53,1024.53l0,-1024" style="fill:none;fill-rule:nonzero;stroke:#5db3f9;stroke-width:1.5px;"/><path d="M640.53,1024.53l0,-1024" style="fill:none;fill-rule:nonzero;stroke:#5db3f9;stroke-width:1.5px;"/><path d="M512.53,1024.53l0,-1024" style="fill:none;fill-rule:nonzero;stroke:#5db3f9;stroke-width:1.5px;"/><path d="M384.53,1024.53l0,-1024" style="fill:none;fill-rule:nonzero;stroke:#5db3f9;stroke-width:1.5px;"/><path d="M256.53,1024.53l0,-1024" style="fill:none;fill-rule:nonzero;stroke:#5db3f9;stroke-width:1.5px;"/><path d="M128.53,1024.53l0,-1024" style="fill:none;fill-rule:nonzero;stroke:#5db3f9;stroke-width:1.5px;"/><path d="M1024.53,0.53l-1024,1024" style="fill:none;fill-rule:nonzero;stroke:#5db3f9;stroke-width:1.5px;"/><path d="M1024.53,1024.53l-1024,-1024" style="fill:none;fill-rule:nonzero;stroke:#5db3f9;stroke-width:1.5px;"/><path d="M512.53,922.53c226.437,0 410,-183.563 410,-410c0,-226.436 -183.563,-410 -410,-410c-226.436,0 -410,183.564 -410,410c0,226.437 183.564,410 410,410Z" style="fill:none;fill-rule:nonzero;stroke:#5db3f9;stroke-width:1.5px;"/><path d="M512.53,768.53c141.385,0 256,-114.615 256,-256c0,-141.385 -114.615,-256 -256,-256c-141.385,0 -256,114.615 -256,256c0,141.385 114.615,256 256,256Z" style="fill:none;fill-rule:nonzero;stroke:#5db3f9;stroke-width:1.5px;"/><path d="M512.53,614.53c56.333,0 102,-45.667 102,-102c0,-56.333 -45.667,-102 -102,-102c-56.333,0 -102,45.667 -102,102c0,56.333 45.667,102 102,102Z" style="fill:none;fill-rule:nonzero;stroke:#5db3f9;stroke-width:1.5px;"/><path d="M0.531,0.531l0,1023.999l1023.999,0l0,-1023.999l-1023.999,0Zm1023.999,651c0,14.24 0,28.48 -0.08,42.73c-0.07,12 -0.21,23.99 -0.53,35.98c-0.71,26.13 -2.25,52.49 -6.89,78.34c-4.71,26.22 -12.4,50.62 -24.529,74.44c-11.92,23.41 -27.49,44.84 -46.07,63.41c-18.58,18.57 -40,34.15 -63.41,46.07c-23.82,12.119 -48.22,19.819 -74.44,24.529c-25.84,4.65 -52.2,6.18 -78.34,6.89c-11.99,0.33 -23.99,0.46 -35.98,0.53c-14.24,0.09 -28.48,0.08 -42.73,0.08l-278,0c-14.24,0 -28.48,0 -42.73,-0.08c-12,-0.07 -23.99,-0.21 -35.98,-0.53c-26.13,-0.71 -52.49,-2.25 -78.34,-6.89c-26.22,-4.71 -50.62,-12.4 -74.44,-24.529c-23.41,-11.92 -44.84,-27.49 -63.41,-46.07c-18.57,-18.58 -34.15,-40 -46.07,-63.41c-12.12,-23.82 -19.82,-48.22 -24.53,-74.44c-4.65,-25.84 -6.18,-52.2 -6.89,-78.34c-0.33,-11.99 -0.46,-23.99 -0.53,-35.98c-0.09,-14.24 -0.08,-28.48 -0.08,-42.73l0,-278c0,-14.24 0,-28.48 0.08,-42.73c0.07,-12 0.21,-23.99 0.53,-35.98c0.71,-26.13 2.25,-52.49 6.89,-78.34c4.71,-26.22 12.4,-50.62 24.53,-74.44c11.92,-23.41 27.49,-44.84 46.07,-63.41c18.58,-18.57 40,-34.15 63.41,-46.07c23.82,-12.12 48.22,-19.82 74.44,-24.53c25.84,-4.65 52.2,-6.18 78.34,-6.89c11.99,-0.33 23.99,-0.46 35.98,-0.53c14.24,-0.09 28.48,-0.08 42.73,-0.08l278,0c14.24,0 28.48,0 42.73,0.08c12,0.07 23.99,0.21 35.98,0.53c26.13,0.71 52.49,2.25 78.34,6.89c26.22,4.71 50.62,12.4 74.44,24.53c23.41,11.92 44.84,27.49 63.41,46.07c18.57,18.58 34.15,40 46.07,63.41c12.119,23.82 19.819,48.22 24.529,74.44c4.65,25.84 6.18,52.2 6.89,78.34c0.33,11.99 0.46,23.99 0.53,35.98c0.09,14.24 0.08,28.48 0.08,42.73l0,278Z" style="fill:#606060;fill-rule:nonzero;"/></svg>