<?xml version="1.0" encoding="UTF-8" standalone="no"?>
<!DOCTYPE svg PUBLIC "-//W3C//DTD SVG 1.1//EN" "http://www.w3.org/Graphics/SVG/1.1/DTD/svg11.dtd">
<svg width="100%" height="100%" viewBox="0 0 1026 1026" version="1.1" xmlns="http://www.w3.org/2000/svg" xmlns:xlink="http://www.w3.org/1999/xlink" xml:space="preserve" xmlns:serif="http://www.serif.com/" style="fill-rule:evenodd;clip-rule:evenodd;stroke-linejoin:round;stroke-miterlimit:2;">
    <g transform="matrix(1,0,0,1,-3,4)">
        <g transform="matrix(1,0,0,1.169003,3,-40.856261)">
            <path d="M462,224C456.833,224.167 446.509,241.231 448,261C449.483,280.669 457.833,295.167 463,295C468.167,294.833 481.163,283.688 479,260C476.302,230.452 467.167,223.833 462,224Z" style="fill:white;"/>
        </g>
        <g transform="matrix(0.912468,0,0,1.150679,-53.056544,-39.450512)">
            <path d="M462,222C456.333,221.833 443.43,239.237 445,259C446.483,277.669 456.237,294.833 461.904,295C467.571,295.167 481.163,283.688 479,260C476.302,230.452 467.667,222.167 462,222Z" style="fill:white;"/>
        </g>
    </g>
</svg>
